<?xml version="1.0" encoding="UTF-8"?><svg id="Layer_2" xmlns="http://www.w3.org/2000/svg" xmlns:xlink="http://www.w3.org/1999/xlink" viewBox="0 0 623.62 623.62"><defs><style>.cls-1,.cls-2{fill:none;}.cls-3{clip-path:url(#clippath);}.cls-2{stroke:#fff;stroke-miterlimit:10;stroke-width:15px;}.cls-4{fill:#231f20;}</style><clipPath id="clippath"><rect class="cls-1" x="251.76" y="249.45" width="124.72" height="124.72"/></clipPath></defs><rect class="cls-4" x="125.88" y="124.72" width="17.01" height="374.17"/><rect class="cls-4" x="159.64" y="124.72" width="17.01" height="374.17"/><rect class="cls-4" x="192.24" y="124.72" width="17.01" height="374.17"/><rect class="cls-4" x="224.48" y="124.72" width="17.01" height="374.17"/><rect class="cls-4" x="256.5" y="124.72" width="17.01" height="374.17"/><rect class="cls-4" x="288.53" y="124.72" width="17.01" height="374.17"/><rect class="cls-4" x="320.5" y="124.72" width="17.01" height="374.17"/><rect class="cls-4" x="354.17" y="124.72" width="17.01" height="374.17"/><rect class="cls-4" x="386.76" y="124.72" width="17.01" height="374.17"/><rect class="cls-4" x="419.89" y="124.72" width="17.01" height="374.17"/><rect class="cls-4" x="450.89" y="124.72" width="17.01" height="374.17"/><rect class="cls-4" x="481.89" y="124.72" width="17.01" height="374.17"/><g class="cls-3"><g><line class="cls-2" x1="393.87" y1="269.74" x2="267.51" y2="391.21"/><line class="cls-2" x1="368.72" y1="239.09" x2="242.35" y2="360.56"/><line class="cls-2" x1="342.47" y1="211.79" x2="216.11" y2="333.26"/><line class="cls-2" x1="422.57" y1="295.12" x2="296.2" y2="416.58"/></g></g></svg>