<?xml version="1.0" encoding="UTF-8"?><svg id="Layer_1" xmlns="http://www.w3.org/2000/svg" xmlns:xlink="http://www.w3.org/1999/xlink" viewBox="0 0 623.62 623.62"><defs><style>.cls-1,.cls-2,.cls-3{fill:none;}.cls-4{clip-path:url(#clippath);}.cls-5{fill:#231f20;}.cls-6{clip-path:url(#clippath-1);}.cls-2{stroke-width:10px;}.cls-2,.cls-7{stroke:#fff;}.cls-2,.cls-7,.cls-3{stroke-miterlimit:10;}.cls-7{fill:#fff;stroke-width:15px;}.cls-3{stroke:#231f20;stroke-width:16px;}</style><clipPath id="clippath"><rect class="cls-1" x="126.07" y="124.41" width="373.02" height="374.17"/></clipPath><clipPath id="clippath-1"><rect class="cls-1" x="251.95" y="249.14" width="124.72" height="124.72"/></clipPath></defs><g class="cls-4"><line class="cls-3" x1="191.56" y1="56.74" x2="575.29" y2="416.39"/><line class="cls-3" x1="228.22" y1="26.86" x2="611.95" y2="386.52"/><line class="cls-3" x1="261.18" y1="-8.3" x2="644.91" y2="351.35"/><line class="cls-3" x1="294.77" y1="-38.01" x2="678.5" y2="321.65"/><line class="cls-3" x1="17.57" y1="216.64" x2="401.3" y2="576.29"/><line class="cls-3" x1="-10.28" y1="249.14" x2="373.45" y2="608.79"/><line class="cls-3" x1="-39.41" y1="280.22" x2="344.32" y2="639.87"/><rect class="cls-5" x="126.07" y="124.41" width="17.01" height="374.17"/><rect class="cls-5" x="159.83" y="124.41" width="17.01" height="374.17"/><rect class="cls-5" x="192.43" y="124.41" width="17.01" height="374.17"/><rect class="cls-5" x="224.67" y="124.41" width="17.01" height="374.17"/><rect class="cls-5" x="256.69" y="124.41" width="17.01" height="374.17"/><rect class="cls-5" x="288.72" y="124.41" width="17.01" height="374.17"/><rect class="cls-5" x="320.69" y="124.41" width="17.01" height="374.17"/><rect class="cls-5" x="354.35" y="124.41" width="17.01" height="374.17"/><rect class="cls-5" x="386.95" y="124.41" width="17.01" height="374.17"/><rect class="cls-5" x="420.08" y="124.41" width="17.01" height="374.17"/><rect class="cls-5" x="451.08" y="124.41" width="17.01" height="374.17"/><rect class="cls-5" x="482.08" y="124.41" width="17.01" height="374.17"/><g class="cls-6"><line class="cls-7" x1="394.06" y1="269.43" x2="267.7" y2="390.89"/><line class="cls-7" x1="368.9" y1="238.78" x2="242.54" y2="360.25"/><line class="cls-7" x1="342.66" y1="211.48" x2="216.3" y2="332.95"/><line class="cls-7" x1="422.76" y1="294.81" x2="296.39" y2="416.27"/></g><line class="cls-3" x1="85.96" y1="154.65" x2="469.69" y2="514.31"/><line class="cls-3" x1="49.81" y1="185.02" x2="433.54" y2="544.67"/><line class="cls-3" x1="113.86" y1="116.69" x2="497.59" y2="476.34"/><line class="cls-3" x1="151.5" y1="84.73" x2="535.23" y2="444.38"/></g><line class="cls-2" x1="333.46" y1="249.14" x2="256.69" y2="319.64"/><line class="cls-2" x1="376.68" y1="259.31" x2="251.95" y2="373.86"/><line class="cls-2" x1="376.68" y1="313.62" x2="301.39" y2="379.8"/><rect class="cls-5" x="288.72" y="373.86" width="17.01" height="10.33"/><rect class="cls-5" x="251.95" y="373.86" width="14.66" height="7.68"/><rect class="cls-5" x="245.2" y="364.59" width="7.8" height="14.44"/><rect class="cls-5" x="321.63" y="240.38" width="15.69" height="8.75"/></svg>